<svg viewBox="0 0 430 211" fill="none" xmlns="http://www.w3.org/2000/svg">
<path d="M41.65 169V70.4L4.25 72.1V48.64H103.7V72.1L65.45 70.4V141.8L67.32 158.8L65.45 169H41.65ZM149.56 169V70.4L112.16 72.1V48.64H211.61V72.1L173.36 70.4V141.8L175.23 158.8L173.36 169H149.56ZM229.42 169V76.01L226.02 59.01L229.42 48.64H266.48C274.64 48.64 282.46 49.4333 289.94 51.02C297.534 52.4933 304.277 55.3267 310.17 59.52C316.177 63.7133 320.88 69.72 324.28 77.54C327.794 85.36 329.55 95.5033 329.55 107.97C329.55 120.437 327.794 130.693 324.28 138.74C320.767 146.673 316.007 152.85 310 157.27C303.994 161.69 297.194 164.75 289.6 166.45C282.12 168.15 274.414 169 266.48 169H229.42ZM253.56 146.9H271.58C283.367 146.9 291.754 143.443 296.74 136.53C301.727 129.503 304.22 119.983 304.22 107.97C304.22 95.9567 301.67 86.7767 296.57 80.43C291.584 73.97 283.254 70.74 271.58 70.74H253.56V146.9Z" fill="currentColor"/>
<path fill-rule="evenodd" clip-rule="evenodd" d="M375.646 106.87L376.957 108L375.646 109.13C361.818 121.044 350.321 135.42 341.739 151.53C338.371 157.851 342.552 165.559 349.688 166.183L357.902 166.901C375.933 168.477 394.067 168.477 412.098 166.901L420.313 166.183C427.448 165.559 431.629 157.851 428.261 151.53C419.679 135.42 408.182 121.044 394.354 109.13L393.043 108L394.354 106.87C408.182 94.9563 419.679 80.5796 428.261 64.4703C431.629 58.1488 427.448 50.4413 420.313 49.8174L412.098 49.0992C394.067 47.5227 375.933 47.5227 357.902 49.0992L349.688 49.8174C342.552 50.4413 338.371 58.1488 341.739 64.4704C350.321 80.5796 361.818 94.9563 375.646 106.87ZM385 92.25C383.607 92.25 382.272 91.6969 381.287 90.7123L367.287 76.7123C365.786 75.2108 365.337 72.9527 366.149 70.9909C366.962 69.0291 368.876 67.75 371 67.75H399C401.123 67.75 403.037 69.0291 403.85 70.9909C404.663 72.9527 404.214 75.2108 402.712 76.7123L388.712 90.7123C387.727 91.6969 386.392 92.25 385 92.25ZM385 123.75C383.607 123.75 382.272 124.303 381.287 125.288L367.287 139.288C365.786 140.789 365.337 143.047 366.149 145.009C366.962 146.971 368.876 148.25 371 148.25H399C401.123 148.25 403.037 146.971 403.85 145.009C404.663 143.047 404.214 140.789 402.712 139.288L388.712 125.288C387.727 124.303 386.392 123.75 385 123.75Z" fill="currentColor"/>
</svg>